<svg xmlns="http://www.w3.org/2000/svg" width="24" height="24" viewBox="0 0 24 24"><path d="M0 0h24v24H0z" fill="none"></path><path fill="currentColor" d="
  M10.0650893,21.5040462 C7.14020814,20.6850349 5,18.0558698 5,14.9390244 C5,14.017627
  5,9.81707317 7.83333333,7.37804878 C7.83333333,7.37804878 7.58333333,11.199187 10,
  10.6300813 C11.125,10.326087 13.0062497,7.63043487 8.91666667,2.5 C14.1666667,3.06910569
  19,9.32926829 19,14.9390244 C19,18.0558698 16.8597919,20.6850349 13.9349107,21.5040462
  C14.454014,21.0118505 14.7765152,20.3233394 14.7765152,19.5613412 C14.7765152,17.2826087
  12,15.0875871 12,15.0875871 C12,15.0875871 9.22348485,17.2826087 9.22348485,19.5613412
  C9.22348485,20.3233394 9.54598603,21.0118505 10.0650893,21.5040462 Z M12.0833333,20.6514763
  C11.3814715,20.6514763 10.8125,20.1226027 10.8125,19.4702042 C10.8125,18.6069669
  12.0833333,16.9347829 12.0833333,16.9347829 C12.0833333,16.9347829 13.3541667,18.6069669
  13.3541667,19.4702042 C13.3541667,20.1226027 12.7851952,20.6514763 12.0833333,20.6514763 Z
"></path></svg>